# xmcd
#
# Track frame offsets:
#	150
#	16084
#	30500
#	41260
#	55010
#	78402
#	91190
#	105027
#	121412
#	132982
#	142557
#
# Disc length: 2318 seconds
#
# Revision: 1
# Processed by: cddbd v1.5.1PL0 Copyright (c) Steve Scherf et al.
# Submitted via: audiograbber 1.82.01
#
DISCID=6e090c0b
DTITLE=Wind of Pain - Worldmachine
DYEAR=1900
DGENRE=Pop
TTITLE0=Disbelief
TTITLE1=CCC The World
TTITLE2=We Have Heaven?
TTITLE3=King Rat
TTITLE4=Hate Demon
TTITLE5=Stains
TTITLE6=The Big Picture
TTITLE7=Unacceptable
TTITLE8=Repent
TTITLE9=Burn
TTITLE10=Worldmachine
EXTD=
EXTT0=
EXTT1=
EXTT2=
EXTT3=
EXTT4=
EXTT5=
EXTT6=
EXTT7=
EXTT8=
EXTT9=
EXTT10=
PLAYORDER=
